<svg width="491" height="132" viewBox="0 0 491 132" fill="none" xmlns="http://www.w3.org/2000/svg">
<path d="M179.3 98.5H190.5L188.6 89.8V38.1H177.9V61.7C174.7 58 170.2 55.8 165 55.8C154.3 55.8 146 64.7 146 77.6C146 90.6 154.3 99.4 165 99.4C170.3 99.4 174.9 97.1 178.1 93.2L179.3 98.5ZM390.9 67.4C393.1 67.4 395.1 68 396.9 69.3L402 57.9C399.6 56.4 396.9 55.8 394.2 55.8C389.4 55.8 385.3 58 382.8 62.1L381.7 56.8H370.7L372.5 65V98.6H383.2V71.9C384.6 69.1 387.3 67.4 390.9 67.4ZM422.2 88.2C416 88.2 411.4 84.1 411.4 77.7C411.4 71.2 416 67.2 422.2 67.2C428.5 67.2 433 71.2 433 77.7C433 84 428.5 88.2 422.2 88.2ZM156.4 77.6C156.4 71.1 161 67.1 167.2 67.1C173.5 67.1 178 71.1 178 77.6C178 84 173.5 88.1 167.2 88.1C161 88.2 156.4 84 156.4 77.6ZM469.7 88.2C463.5 88.2 458.9 84.1 458.9 77.7C458.9 71.2 463.5 67.2 469.7 67.2C476 67.2 480.5 71.2 480.5 77.7C480.4 84 475.9 88.2 469.7 88.2ZM216.5 66.5C222 66.5 225.6 69.1 226.8 73.9H206.2C207.3 69 211 66.5 216.5 66.5ZM344.4 66.5C349.9 66.5 353.5 69.1 354.7 73.9H334.1C335.4 69 339 66.5 344.4 66.5ZM292.2 98.5H309.4L320.6 56.6H308.9L300.8 90.6L292.6 56.7H281.1L292.2 98.5ZM264.7 98.5H275.4V56.6H264.7V98.5ZM218.1 99.3C224.1 99.3 229.9 97.6 234.8 94.5L230.7 85.3C226.9 87.4 222.5 88.5 218.2 88.5C212.6 88.5 208.7 86.3 206.9 82.2H237.1C237.4 80.6 237.6 79.2 237.6 77.3C237.6 64.3 228.6 55.7 216.7 55.7C204.6 55.7 195.8 64.5 195.8 77.5C195.7 90.8 204.5 99.3 218.1 99.3ZM490.8 77.6C490.8 64.6 481.8 55.8 469.7 55.8C457.5 55.8 448.6 64.7 448.6 77.6C448.6 90.5 457.6 99.4 469.7 99.4C481.8 99.4 490.8 90.6 490.8 77.6ZM345.9 99.4C351.9 99.4 357.7 97.8 362.6 94.6L358.5 85.4C354.7 87.5 350.3 88.6 346 88.6C340.4 88.6 336.5 86.4 334.7 82.3H364.9C365.2 80.7 365.4 79.3 365.4 77.4C365.4 64.4 356.4 55.8 344.5 55.8C332.4 55.8 323.6 64.6 323.6 77.6C323.6 91 332.3 99.4 345.9 99.4ZM422.2 99.4C434.4 99.4 443.3 90.5 443.3 77.6C443.3 64.7 434.3 55.8 422.2 55.8C410 55.8 401.1 64.7 401.1 77.6C401.1 90.5 410 99.4 422.2 99.4ZM244.4 98.5H255.1V38.1H244.4V98.5ZM270.1 50.9C273.8 50.9 276.8 47.9 276.8 44.1C276.8 40.3 273.9 37.3 270.1 37.3C266.3 37.3 263.3 40.3 263.3 44.1C263.3 47.9 266.2 50.9 270.1 50.9ZM86.2 0L80.1 58L69.7 9.10001L36.9 16L47.2 64.9L0 74.9L8.4 113.9L91.5 131.6L110.5 89.1L119.5 3.5L86.2 0ZM59.9 84.2C58.2 85.8 56 85.6 53.5 84.8C51.1 84 50.1 81.2 50.9 77.6C51.6 75 54.7 74.6 56.4 74.6C57 74.6 57.6 74.7 58.2 75C59.3 75.5 61.2 76.6 61.6 78.2C62.2 80.6 61.6 82.6 59.9 84.2ZM84 86.8C82.7 89 79.5 89.3 76.2 87.7C74 86.6 74 84 74.3 82.3C74.4 81.4 74.8 80.5 75.4 79.8C76.2 78.8 77.5 77.5 78.9 77.5C81.4 77.4 83.4 78.5 84.6 80.5C85.8 82.5 85.2 84.7 84 86.8Z" fill="#00CCBC"/>
</svg>
