<svg width="497" height="120" viewBox="0 0 497 120" fill="none" xmlns="http://www.w3.org/2000/svg">
<path d="M55.7442 1.15878C56.8753 0.403253 58.2051 0 59.5654 0C60.9257 0 62.2554 0.403253 63.3866 1.15878C69.2776 4.86401 74.9295 8.93644 80.3087 13.3519C80.3087 13.3519 81.7737 14.3675 81.8137 12.6471C81.668 10.4257 81.7993 8.19484 82.2046 6.00586C82.4215 5.43427 82.8062 4.94168 83.3084 4.59288C83.8105 4.24408 84.4064 4.05539 85.0178 4.05164C85.0178 4.05164 91.6629 4.38402 95.8827 4.95028C96.7995 5.0721 97.6487 5.49852 98.294 6.16102C98.9393 6.82353 99.3431 7.68367 99.4407 8.60329C99.4407 8.60329 102.155 26.6991 102.765 33.2234C102.765 33.2234 103.288 36.5471 108.099 42.1728C108.099 42.1728 117.868 55.8523 119.004 58.4682C119.004 58.4682 121.269 63.1984 116.384 63.8416C116.384 63.8416 107.471 64.7402 106.612 64.9372C106.035 65.0061 105.507 65.2979 105.142 65.7504C104.777 66.203 104.603 66.7803 104.658 67.3592C104.658 67.3592 104.19 98.839 101.885 113.962C101.885 113.962 101.278 119.963 97.9756 119.825C97.9756 119.825 88.8097 119.532 86.6799 119.591C86.6799 119.591 85.7626 119.591 85.8981 118.36C85.8981 118.36 90.5672 69.2734 87.4031 44.4594C87.4031 44.4594 87.2646 41.2557 84.8239 40.5509C84.8239 40.5509 82.5955 39.6523 80.4656 42.5052C71.2223 55.4444 66.1622 70.903 65.9658 86.8029C65.9658 86.8029 65.7103 94.6198 66.9046 96.5709C66.9046 96.5709 67.6433 97.9404 71.4383 98.2512L76.2428 98.8975C76.2428 98.8975 77.1231 98.8975 77.0431 100.067C77.0431 100.067 75.9504 114.47 75.6395 117.03C75.618 117.615 75.501 118.187 75.2856 118.729C75.2856 118.729 75.1102 119.218 73.6051 119.16C73.6051 119.16 52.4232 119.006 50.0379 119.16C50.0379 119.16 49.0406 119.16 48.8283 118.634C48.6128 118.104 47.3601 100.048 47.4001 97.4911C47.381 97.2315 47.4419 96.9724 47.5745 96.7485C47.7071 96.5245 47.9051 96.3466 48.1419 96.2385C49.7586 95.2188 51.125 93.8484 52.14 92.2289C53.155 90.6094 53.7925 88.7823 54.0052 86.8829C54.2638 84.1439 54.3007 81.3957 54.1222 78.6536C54.1222 78.6536 54.904 51.0453 55.1009 46.6075C55.1009 46.6075 55.2548 45.1026 53.3004 44.8318C52.8315 44.7216 52.3381 44.8016 51.928 45.0542C51.5179 45.3068 51.2246 45.7115 51.112 46.1797V46.3336C51.112 46.4905 49.7455 64.5463 49.9978 71.7354C49.9978 71.7354 50.4688 76.444 47.2062 76.5425C47.2062 76.5425 44.0391 77.0133 43.8821 73.0864C43.8821 73.0864 44.116 55.3815 44.8978 46.629C44.9008 46.146 44.7247 45.679 44.4036 45.3181C44.0824 44.9572 43.639 44.728 43.1588 44.6748C42.6608 44.6056 42.1553 44.7315 41.7481 45.0264C41.3408 45.3212 41.0633 45.762 40.9735 46.2566C40.9613 46.3072 40.9613 46.36 40.9735 46.4105C40.9735 46.4105 39.6039 63.3553 39.8563 72.3047C39.8563 72.3047 40.2472 76.644 36.7876 76.484C36.7876 76.484 33.8945 76.8163 33.7406 72.9664C33.7406 72.9664 34.5223 48.7187 34.7378 46.8445C34.7128 46.3818 34.5242 45.943 34.2057 45.6065C33.8872 45.27 33.4594 45.0576 32.9988 45.0072H32.8018C32.3132 44.9663 31.827 45.1103 31.4395 45.4106C31.0519 45.7109 30.7912 46.1457 30.7089 46.629C30.7027 46.6873 30.7027 46.7461 30.7089 46.8044C30.7089 46.8044 29.4223 75.8008 29.5978 84.3193C29.5978 84.3193 29.4808 93.0749 35.9474 96.6294C35.9474 96.6294 36.9046 97.1772 36.9262 98.0173C36.9262 98.0173 37.6495 113.396 38.3112 118.36C38.3112 118.36 38.5482 119.551 37.4925 119.551L21.2136 120C20.3604 119.995 19.5412 119.664 18.9234 119.076C18.3056 118.487 17.9358 117.685 17.8896 116.833C15.7803 100.539 14.7757 84.1212 14.8825 67.6915C14.9395 67.0837 14.7723 66.4759 14.4123 65.9828C14.0523 65.4896 13.5244 65.1451 12.928 65.0141C12.928 65.0141 4.60241 64.2539 2.58948 63.7462C2.07138 63.6115 1.59159 63.3586 1.18786 63.0071C0.784129 62.6556 0.467477 62.2153 0.262819 61.7207C0.058161 61.2261 -0.0289186 60.6908 0.00843206 60.1568C0.0457827 59.6229 0.206545 59.1049 0.478068 58.6436C14.0039 35.3124 32.9613 15.5918 55.7442 1.15878ZM170.379 46.706H154.313C149.117 46.706 149.117 46.706 148.022 52.7841C146.929 58.8591 146.944 59.0745 151.715 59.0745H161.272L155.84 90.1235C154.528 97.0602 151.5 101.849 142.158 104.662C139.776 105.308 139.13 106.167 139.13 107.259C139.296 109.007 139.816 110.703 140.653 112.245C142.161 115.938 143.039 116.599 144.328 116.599C145.877 116.451 147.409 116.156 148.902 115.719C162.131 111.383 167.563 101.184 169.733 89.0279L175.812 54.092C176.886 46.706 176.886 46.706 170.379 46.706ZM224.861 46.706C218.354 46.706 218.354 46.706 217.474 52.1378L212.783 80.3524C211.475 88.6001 209.305 93.3672 201.272 93.3672C193.242 93.3672 190.644 88.5971 191.952 81.211L196.507 54.3074C197.815 46.706 197.582 46.706 190.859 46.706C184.134 46.706 184.134 46.706 183.257 51.9224L178.486 80.1401C175.673 96.2016 185.658 106.167 199.77 106.167C215.599 106.167 223.629 99.0144 226.23 82.0943L231.016 54.092C232.094 46.706 231.663 46.706 224.941 46.706M254.584 92.9364C259.804 92.7209 262.617 90.3389 262.617 87.9539C262.617 84.9071 258.923 83.83 253.937 82.3066C244.168 79.2599 235.276 75.8008 235.276 65.3865C235.276 53.0149 245.479 46.2751 258.277 46.2751C263.425 46.238 268.571 46.4599 273.697 46.9399C277.157 47.3707 278.037 48.4478 276.941 53.8766C275.845 59.3084 274.556 59.7392 271.527 59.5238C267.834 59.3084 263.048 58.8591 257.418 58.8591C250.912 58.8591 248.954 61.2626 248.954 63.4322C248.954 66.2451 251.555 67.7715 257.634 69.5103C268.908 72.754 276.295 77.3272 276.295 87.0952C276.295 98.6051 267.834 105.326 254.156 105.754C247.622 105.985 241.081 105.625 234.611 104.68C230.256 104.015 230.041 104.015 231.133 97.725C232.211 92.0962 232.211 91.6469 236.335 92.0962C242.377 92.8594 248.474 93.1456 254.565 92.9579M325.562 46.706H288.88C283.682 46.706 283.682 46.706 282.589 53.0149C281.493 59.3299 281.727 59.3084 286.283 59.3084H298.225L291.481 98.2328C290.188 105.813 290.404 105.813 297.129 105.813C303.42 105.813 303.636 105.813 304.516 100.402L311.45 59.3669H322.961C328.163 59.3669 328.163 59.3669 329.256 53.0764C330.348 46.7829 330.33 46.7675 325.562 46.7675M390.244 59.1545C395.445 59.1545 395.445 59.1545 396.538 52.861C397.63 46.5706 397.615 46.5706 392.844 46.5706H366.581C357.24 46.5706 357.47 46.5706 355.95 55.9108L349.228 95.1829C347.486 105.385 347.701 105.385 357.046 105.385H382.663C388.095 105.385 387.861 105.385 388.954 99.3068C390.05 93.2318 390.031 93.0164 385.261 93.0164H363.1L364.842 81.7219H383.288C388.292 81.7219 388.292 81.7219 389.151 75.8592C390.013 69.9966 390.013 69.7842 383.288 69.7842H367.009L368.748 59.136L390.244 59.1545ZM417.975 79.9246L426.439 61.2626C427.101 59.7392 427.101 59.7392 428.175 59.7392C429.252 59.7392 429.271 59.7392 429.486 61.478L432.084 79.9246H417.975ZM440.976 53.8766C439.686 46.4905 439.686 46.4905 429.249 46.4905C419.48 46.4905 419.696 46.4905 416.667 52.5686L394.74 98.3682C391.478 104.877 392.14 105.52 400.154 105.52C406.464 105.52 406.464 105.52 409.065 99.6577L412.524 91.8408H433.805L434.882 99.6577C435.759 105.52 435.975 105.52 442.269 105.52C449.44 105.52 450.083 105.089 448.772 97.9189L440.976 53.8766ZM492.9 46.706H456.005C450.785 46.706 450.785 46.706 449.711 53.0149C448.634 59.3299 448.831 59.3084 453.386 59.3084H465.328L458.603 98.2328C457.295 105.813 457.507 105.813 464.251 105.813C470.542 105.813 470.757 105.813 471.619 100.402L478.575 59.3669H490.065C495.282 59.3669 495.282 59.3669 496.359 53.0764C497.433 46.7829 497.667 46.7675 492.9 46.7675" fill="#FF8000"/>
</svg>
