<svg width="145" height="159" viewBox="0 0 145 159" fill="none" xmlns="http://www.w3.org/2000/svg">
<path d="M4.67742 2.33824C4.67742 3.62961 3.63034 4.67647 2.33871 4.67647C1.04708 4.67647 0 3.62961 0 2.33824C0 1.04686 1.04708 0 2.33871 0C3.63034 0 4.67742 1.04686 4.67742 2.33824Z" fill="#868686" fill-opacity="0.4"/>
<path d="M18.7097 2.33824C18.7097 3.62961 17.6626 4.67647 16.371 4.67647C15.0793 4.67647 14.0323 3.62961 14.0323 2.33824C14.0323 1.04686 15.0793 0 16.371 0C17.6626 0 18.7097 1.04686 18.7097 2.33824Z" fill="#868686" fill-opacity="0.4"/>
<path d="M32.7419 2.33824C32.7419 3.62961 31.6949 4.67647 30.4032 4.67647C29.1116 4.67647 28.0645 3.62961 28.0645 2.33824C28.0645 1.04686 29.1116 0 30.4032 0C31.6949 0 32.7419 1.04686 32.7419 2.33824Z" fill="#868686" fill-opacity="0.4"/>
<path d="M46.7742 2.33824C46.7742 3.62961 45.7271 4.67647 44.4355 4.67647C43.1439 4.67647 42.0968 3.62961 42.0968 2.33824C42.0968 1.04686 43.1439 0 44.4355 0C45.7271 0 46.7742 1.04686 46.7742 2.33824Z" fill="#868686" fill-opacity="0.4"/>
<path d="M60.8065 2.33824C60.8065 3.62961 59.7594 4.67647 58.4677 4.67647C57.1761 4.67647 56.129 3.62961 56.129 2.33824C56.129 1.04686 57.1761 0 58.4677 0C59.7594 0 60.8065 1.04686 60.8065 2.33824Z" fill="#868686" fill-opacity="0.4"/>
<path d="M74.8387 2.33824C74.8387 3.62961 73.7916 4.67647 72.5 4.67647C71.2084 4.67647 70.1613 3.62961 70.1613 2.33824C70.1613 1.04686 71.2084 0 72.5 0C73.7916 0 74.8387 1.04686 74.8387 2.33824Z" fill="#868686" fill-opacity="0.4"/>
<path d="M88.871 2.33824C88.871 3.62961 87.8239 4.67647 86.5323 4.67647C85.2406 4.67647 84.1936 3.62961 84.1936 2.33824C84.1936 1.04686 85.2406 0 86.5323 0C87.8239 0 88.871 1.04686 88.871 2.33824Z" fill="#868686" fill-opacity="0.4"/>
<path d="M102.903 2.33824C102.903 3.62961 101.856 4.67647 100.565 4.67647C99.2729 4.67647 98.2258 3.62961 98.2258 2.33824C98.2258 1.04686 99.2729 0 100.565 0C101.856 0 102.903 1.04686 102.903 2.33824Z" fill="#868686" fill-opacity="0.4"/>
<path d="M116.935 2.33824C116.935 3.62961 115.888 4.67647 114.597 4.67647C113.305 4.67647 112.258 3.62961 112.258 2.33824C112.258 1.04686 113.305 0 114.597 0C115.888 0 116.935 1.04686 116.935 2.33824Z" fill="#868686" fill-opacity="0.4"/>
<path d="M130.968 2.33824C130.968 3.62961 129.921 4.67647 128.629 4.67647C127.337 4.67647 126.29 3.62961 126.29 2.33824C126.29 1.04686 127.337 0 128.629 0C129.921 0 130.968 1.04686 130.968 2.33824Z" fill="#868686" fill-opacity="0.4"/>
<path d="M145 2.33824C145 3.62961 143.953 4.67647 142.661 4.67647C141.37 4.67647 140.323 3.62961 140.323 2.33824C140.323 1.04686 141.37 0 142.661 0C143.953 0 145 1.04686 145 2.33824Z" fill="#868686" fill-opacity="0.4"/>
<path d="M4.67742 16.3676C4.67742 17.659 3.63034 18.7059 2.33871 18.7059C1.04708 18.7059 0 17.659 0 16.3676C0 15.0763 1.04708 14.0294 2.33871 14.0294C3.63034 14.0294 4.67742 15.0763 4.67742 16.3676Z" fill="#868686" fill-opacity="0.4"/>
<path d="M18.7097 16.3676C18.7097 17.659 17.6626 18.7059 16.371 18.7059C15.0793 18.7059 14.0323 17.659 14.0323 16.3676C14.0323 15.0763 15.0793 14.0294 16.371 14.0294C17.6626 14.0294 18.7097 15.0763 18.7097 16.3676Z" fill="#868686" fill-opacity="0.4"/>
<path d="M32.7419 16.3676C32.7419 17.659 31.6949 18.7059 30.4032 18.7059C29.1116 18.7059 28.0645 17.659 28.0645 16.3676C28.0645 15.0763 29.1116 14.0294 30.4032 14.0294C31.6949 14.0294 32.7419 15.0763 32.7419 16.3676Z" fill="#868686" fill-opacity="0.4"/>
<path d="M46.7742 16.3676C46.7742 17.659 45.7271 18.7059 44.4355 18.7059C43.1439 18.7059 42.0968 17.659 42.0968 16.3676C42.0968 15.0763 43.1439 14.0294 44.4355 14.0294C45.7271 14.0294 46.7742 15.0763 46.7742 16.3676Z" fill="#868686" fill-opacity="0.4"/>
<path d="M60.8065 16.3676C60.8065 17.659 59.7594 18.7059 58.4677 18.7059C57.1761 18.7059 56.129 17.659 56.129 16.3676C56.129 15.0763 57.1761 14.0294 58.4677 14.0294C59.7594 14.0294 60.8065 15.0763 60.8065 16.3676Z" fill="#868686" fill-opacity="0.4"/>
<path d="M74.8387 16.3676C74.8387 17.659 73.7916 18.7059 72.5 18.7059C71.2084 18.7059 70.1613 17.659 70.1613 16.3676C70.1613 15.0763 71.2084 14.0294 72.5 14.0294C73.7916 14.0294 74.8387 15.0763 74.8387 16.3676Z" fill="#868686" fill-opacity="0.4"/>
<path d="M88.871 16.3676C88.871 17.659 87.8239 18.7059 86.5323 18.7059C85.2406 18.7059 84.1936 17.659 84.1936 16.3676C84.1936 15.0763 85.2406 14.0294 86.5323 14.0294C87.8239 14.0294 88.871 15.0763 88.871 16.3676Z" fill="#868686" fill-opacity="0.4"/>
<path d="M102.903 16.3676C102.903 17.659 101.856 18.7059 100.565 18.7059C99.2729 18.7059 98.2258 17.659 98.2258 16.3676C98.2258 15.0763 99.2729 14.0294 100.565 14.0294C101.856 14.0294 102.903 15.0763 102.903 16.3676Z" fill="#868686" fill-opacity="0.4"/>
<path d="M116.935 16.3676C116.935 17.659 115.888 18.7059 114.597 18.7059C113.305 18.7059 112.258 17.659 112.258 16.3676C112.258 15.0763 113.305 14.0294 114.597 14.0294C115.888 14.0294 116.935 15.0763 116.935 16.3676Z" fill="#868686" fill-opacity="0.4"/>
<path d="M130.968 16.3676C130.968 17.659 129.921 18.7059 128.629 18.7059C127.337 18.7059 126.29 17.659 126.29 16.3676C126.29 15.0763 127.337 14.0294 128.629 14.0294C129.921 14.0294 130.968 15.0763 130.968 16.3676Z" fill="#868686" fill-opacity="0.4"/>
<path d="M145 16.3676C145 17.659 143.953 18.7059 142.661 18.7059C141.37 18.7059 140.323 17.659 140.323 16.3676C140.323 15.0763 141.37 14.0294 142.661 14.0294C143.953 14.0294 145 15.0763 145 16.3676Z" fill="#868686" fill-opacity="0.4"/>
<path d="M4.67742 30.3971C4.67742 31.6884 3.63034 32.7353 2.33871 32.7353C1.04708 32.7353 0 31.6884 0 30.3971C0 29.1057 1.04708 28.0588 2.33871 28.0588C3.63034 28.0588 4.67742 29.1057 4.67742 30.3971Z" fill="#868686" fill-opacity="0.4"/>
<path d="M18.7097 30.3971C18.7097 31.6884 17.6626 32.7353 16.371 32.7353C15.0793 32.7353 14.0323 31.6884 14.0323 30.3971C14.0323 29.1057 15.0793 28.0588 16.371 28.0588C17.6626 28.0588 18.7097 29.1057 18.7097 30.3971Z" fill="#868686" fill-opacity="0.4"/>
<path d="M32.7419 30.3971C32.7419 31.6884 31.6949 32.7353 30.4032 32.7353C29.1116 32.7353 28.0645 31.6884 28.0645 30.3971C28.0645 29.1057 29.1116 28.0588 30.4032 28.0588C31.6949 28.0588 32.7419 29.1057 32.7419 30.3971Z" fill="#868686" fill-opacity="0.4"/>
<path d="M46.7742 30.3971C46.7742 31.6884 45.7271 32.7353 44.4355 32.7353C43.1439 32.7353 42.0968 31.6884 42.0968 30.3971C42.0968 29.1057 43.1439 28.0588 44.4355 28.0588C45.7271 28.0588 46.7742 29.1057 46.7742 30.3971Z" fill="#868686" fill-opacity="0.4"/>
<path d="M60.8065 30.3971C60.8065 31.6884 59.7594 32.7353 58.4677 32.7353C57.1761 32.7353 56.129 31.6884 56.129 30.3971C56.129 29.1057 57.1761 28.0588 58.4677 28.0588C59.7594 28.0588 60.8065 29.1057 60.8065 30.3971Z" fill="#868686" fill-opacity="0.4"/>
<path d="M74.8387 30.3971C74.8387 31.6884 73.7916 32.7353 72.5 32.7353C71.2084 32.7353 70.1613 31.6884 70.1613 30.3971C70.1613 29.1057 71.2084 28.0588 72.5 28.0588C73.7916 28.0588 74.8387 29.1057 74.8387 30.3971Z" fill="#868686" fill-opacity="0.4"/>
<path d="M88.871 30.3971C88.871 31.6884 87.8239 32.7353 86.5323 32.7353C85.2406 32.7353 84.1936 31.6884 84.1936 30.3971C84.1936 29.1057 85.2406 28.0588 86.5323 28.0588C87.8239 28.0588 88.871 29.1057 88.871 30.3971Z" fill="#868686" fill-opacity="0.4"/>
<path d="M102.903 30.3971C102.903 31.6884 101.856 32.7353 100.565 32.7353C99.2729 32.7353 98.2258 31.6884 98.2258 30.3971C98.2258 29.1057 99.2729 28.0588 100.565 28.0588C101.856 28.0588 102.903 29.1057 102.903 30.3971Z" fill="#868686" fill-opacity="0.4"/>
<path d="M116.935 30.3971C116.935 31.6884 115.888 32.7353 114.597 32.7353C113.305 32.7353 112.258 31.6884 112.258 30.3971C112.258 29.1057 113.305 28.0588 114.597 28.0588C115.888 28.0588 116.935 29.1057 116.935 30.3971Z" fill="#868686" fill-opacity="0.4"/>
<path d="M130.968 30.3971C130.968 31.6884 129.921 32.7353 128.629 32.7353C127.337 32.7353 126.29 31.6884 126.29 30.3971C126.29 29.1057 127.337 28.0588 128.629 28.0588C129.921 28.0588 130.968 29.1057 130.968 30.3971Z" fill="#868686" fill-opacity="0.4"/>
<path d="M145 30.3971C145 31.6884 143.953 32.7353 142.661 32.7353C141.37 32.7353 140.323 31.6884 140.323 30.3971C140.323 29.1057 141.37 28.0588 142.661 28.0588C143.953 28.0588 145 29.1057 145 30.3971Z" fill="#868686" fill-opacity="0.4"/>
<path d="M4.67742 44.4265C4.67742 45.7178 3.63034 46.7647 2.33871 46.7647C1.04708 46.7647 0 45.7178 0 44.4265C0 43.1351 1.04708 42.0882 2.33871 42.0882C3.63034 42.0882 4.67742 43.1351 4.67742 44.4265Z" fill="#868686" fill-opacity="0.4"/>
<path d="M18.7097 44.4265C18.7097 45.7178 17.6626 46.7647 16.371 46.7647C15.0793 46.7647 14.0323 45.7178 14.0323 44.4265C14.0323 43.1351 15.0793 42.0882 16.371 42.0882C17.6626 42.0882 18.7097 43.1351 18.7097 44.4265Z" fill="#868686" fill-opacity="0.4"/>
<path d="M32.7419 44.4265C32.7419 45.7178 31.6949 46.7647 30.4032 46.7647C29.1116 46.7647 28.0645 45.7178 28.0645 44.4265C28.0645 43.1351 29.1116 42.0882 30.4032 42.0882C31.6949 42.0882 32.7419 43.1351 32.7419 44.4265Z" fill="#868686" fill-opacity="0.4"/>
<path d="M46.7742 44.4265C46.7742 45.7178 45.7271 46.7647 44.4355 46.7647C43.1439 46.7647 42.0968 45.7178 42.0968 44.4265C42.0968 43.1351 43.1439 42.0882 44.4355 42.0882C45.7271 42.0882 46.7742 43.1351 46.7742 44.4265Z" fill="#868686" fill-opacity="0.4"/>
<path d="M60.8065 44.4265C60.8065 45.7178 59.7594 46.7647 58.4677 46.7647C57.1761 46.7647 56.129 45.7178 56.129 44.4265C56.129 43.1351 57.1761 42.0882 58.4677 42.0882C59.7594 42.0882 60.8065 43.1351 60.8065 44.4265Z" fill="#868686" fill-opacity="0.4"/>
<path d="M74.8387 44.4265C74.8387 45.7178 73.7916 46.7647 72.5 46.7647C71.2084 46.7647 70.1613 45.7178 70.1613 44.4265C70.1613 43.1351 71.2084 42.0882 72.5 42.0882C73.7916 42.0882 74.8387 43.1351 74.8387 44.4265Z" fill="#868686" fill-opacity="0.4"/>
<path d="M88.871 44.4265C88.871 45.7178 87.8239 46.7647 86.5323 46.7647C85.2406 46.7647 84.1936 45.7178 84.1936 44.4265C84.1936 43.1351 85.2406 42.0882 86.5323 42.0882C87.8239 42.0882 88.871 43.1351 88.871 44.4265Z" fill="#868686" fill-opacity="0.4"/>
<path d="M102.903 44.4265C102.903 45.7178 101.856 46.7647 100.565 46.7647C99.2729 46.7647 98.2258 45.7178 98.2258 44.4265C98.2258 43.1351 99.2729 42.0882 100.565 42.0882C101.856 42.0882 102.903 43.1351 102.903 44.4265Z" fill="#868686" fill-opacity="0.4"/>
<path d="M116.935 44.4265C116.935 45.7178 115.888 46.7647 114.597 46.7647C113.305 46.7647 112.258 45.7178 112.258 44.4265C112.258 43.1351 113.305 42.0882 114.597 42.0882C115.888 42.0882 116.935 43.1351 116.935 44.4265Z" fill="#868686" fill-opacity="0.4"/>
<path d="M130.968 44.4265C130.968 45.7178 129.921 46.7647 128.629 46.7647C127.337 46.7647 126.29 45.7178 126.29 44.4265C126.29 43.1351 127.337 42.0882 128.629 42.0882C129.921 42.0882 130.968 43.1351 130.968 44.4265Z" fill="#868686" fill-opacity="0.4"/>
<path d="M145 44.4265C145 45.7178 143.953 46.7647 142.661 46.7647C141.37 46.7647 140.323 45.7178 140.323 44.4265C140.323 43.1351 141.37 42.0882 142.661 42.0882C143.953 42.0882 145 43.1351 145 44.4265Z" fill="#868686" fill-opacity="0.4"/>
<path d="M4.67742 58.4559C4.67742 59.7472 3.63034 60.7941 2.33871 60.7941C1.04708 60.7941 0 59.7472 0 58.4559C0 57.1645 1.04708 56.1176 2.33871 56.1176C3.63034 56.1176 4.67742 57.1645 4.67742 58.4559Z" fill="#868686" fill-opacity="0.4"/>
<path d="M18.7097 58.4559C18.7097 59.7472 17.6626 60.7941 16.371 60.7941C15.0793 60.7941 14.0323 59.7472 14.0323 58.4559C14.0323 57.1645 15.0793 56.1176 16.371 56.1176C17.6626 56.1176 18.7097 57.1645 18.7097 58.4559Z" fill="#868686" fill-opacity="0.4"/>
<path d="M32.7419 58.4559C32.7419 59.7472 31.6949 60.7941 30.4032 60.7941C29.1116 60.7941 28.0645 59.7472 28.0645 58.4559C28.0645 57.1645 29.1116 56.1176 30.4032 56.1176C31.6949 56.1176 32.7419 57.1645 32.7419 58.4559Z" fill="#868686" fill-opacity="0.4"/>
<path d="M46.7742 58.4559C46.7742 59.7472 45.7271 60.7941 44.4355 60.7941C43.1439 60.7941 42.0968 59.7472 42.0968 58.4559C42.0968 57.1645 43.1439 56.1176 44.4355 56.1176C45.7271 56.1176 46.7742 57.1645 46.7742 58.4559Z" fill="#868686" fill-opacity="0.4"/>
<path d="M60.8065 58.4559C60.8065 59.7472 59.7594 60.7941 58.4677 60.7941C57.1761 60.7941 56.129 59.7472 56.129 58.4559C56.129 57.1645 57.1761 56.1176 58.4677 56.1176C59.7594 56.1176 60.8065 57.1645 60.8065 58.4559Z" fill="#868686" fill-opacity="0.4"/>
<path d="M74.8387 58.4559C74.8387 59.7472 73.7916 60.7941 72.5 60.7941C71.2084 60.7941 70.1613 59.7472 70.1613 58.4559C70.1613 57.1645 71.2084 56.1176 72.5 56.1176C73.7916 56.1176 74.8387 57.1645 74.8387 58.4559Z" fill="#868686" fill-opacity="0.4"/>
<path d="M88.871 58.4559C88.871 59.7472 87.8239 60.7941 86.5323 60.7941C85.2406 60.7941 84.1936 59.7472 84.1936 58.4559C84.1936 57.1645 85.2406 56.1176 86.5323 56.1176C87.8239 56.1176 88.871 57.1645 88.871 58.4559Z" fill="#868686" fill-opacity="0.4"/>
<path d="M102.903 58.4559C102.903 59.7472 101.856 60.7941 100.565 60.7941C99.2729 60.7941 98.2258 59.7472 98.2258 58.4559C98.2258 57.1645 99.2729 56.1176 100.565 56.1176C101.856 56.1176 102.903 57.1645 102.903 58.4559Z" fill="#868686" fill-opacity="0.4"/>
<path d="M116.935 58.4559C116.935 59.7472 115.888 60.7941 114.597 60.7941C113.305 60.7941 112.258 59.7472 112.258 58.4559C112.258 57.1645 113.305 56.1176 114.597 56.1176C115.888 56.1176 116.935 57.1645 116.935 58.4559Z" fill="#868686" fill-opacity="0.4"/>
<path d="M130.968 58.4559C130.968 59.7472 129.921 60.7941 128.629 60.7941C127.337 60.7941 126.29 59.7472 126.29 58.4559C126.29 57.1645 127.337 56.1176 128.629 56.1176C129.921 56.1176 130.968 57.1645 130.968 58.4559Z" fill="#868686" fill-opacity="0.4"/>
<path d="M145 58.4559C145 59.7472 143.953 60.7941 142.661 60.7941C141.37 60.7941 140.323 59.7472 140.323 58.4559C140.323 57.1645 141.37 56.1176 142.661 56.1176C143.953 56.1176 145 57.1645 145 58.4559Z" fill="#868686" fill-opacity="0.4"/>
<path d="M4.67742 72.4853C4.67742 73.7767 3.63034 74.8235 2.33871 74.8235C1.04708 74.8235 0 73.7767 0 72.4853C0 71.1939 1.04708 70.1471 2.33871 70.1471C3.63034 70.1471 4.67742 71.1939 4.67742 72.4853Z" fill="#868686" fill-opacity="0.4"/>
<path d="M18.7097 72.4853C18.7097 73.7767 17.6626 74.8235 16.371 74.8235C15.0793 74.8235 14.0323 73.7767 14.0323 72.4853C14.0323 71.1939 15.0793 70.1471 16.371 70.1471C17.6626 70.1471 18.7097 71.1939 18.7097 72.4853Z" fill="#868686" fill-opacity="0.4"/>
<path d="M32.7419 72.4853C32.7419 73.7767 31.6949 74.8235 30.4032 74.8235C29.1116 74.8235 28.0645 73.7767 28.0645 72.4853C28.0645 71.1939 29.1116 70.1471 30.4032 70.1471C31.6949 70.1471 32.7419 71.1939 32.7419 72.4853Z" fill="#868686" fill-opacity="0.4"/>
<path d="M46.7742 72.4853C46.7742 73.7767 45.7271 74.8235 44.4355 74.8235C43.1439 74.8235 42.0968 73.7767 42.0968 72.4853C42.0968 71.1939 43.1439 70.1471 44.4355 70.1471C45.7271 70.1471 46.7742 71.1939 46.7742 72.4853Z" fill="#868686" fill-opacity="0.4"/>
<path d="M60.8065 72.4853C60.8065 73.7767 59.7594 74.8235 58.4677 74.8235C57.1761 74.8235 56.129 73.7767 56.129 72.4853C56.129 71.1939 57.1761 70.1471 58.4677 70.1471C59.7594 70.1471 60.8065 71.1939 60.8065 72.4853Z" fill="#868686" fill-opacity="0.4"/>
<path d="M74.8387 72.4853C74.8387 73.7767 73.7916 74.8235 72.5 74.8235C71.2084 74.8235 70.1613 73.7767 70.1613 72.4853C70.1613 71.1939 71.2084 70.1471 72.5 70.1471C73.7916 70.1471 74.8387 71.1939 74.8387 72.4853Z" fill="#868686" fill-opacity="0.4"/>
<path d="M88.871 72.4853C88.871 73.7767 87.8239 74.8235 86.5323 74.8235C85.2406 74.8235 84.1936 73.7767 84.1936 72.4853C84.1936 71.1939 85.2406 70.1471 86.5323 70.1471C87.8239 70.1471 88.871 71.1939 88.871 72.4853Z" fill="#868686" fill-opacity="0.4"/>
<path d="M102.903 72.4853C102.903 73.7767 101.856 74.8235 100.565 74.8235C99.2729 74.8235 98.2258 73.7767 98.2258 72.4853C98.2258 71.1939 99.2729 70.1471 100.565 70.1471C101.856 70.1471 102.903 71.1939 102.903 72.4853Z" fill="#868686" fill-opacity="0.4"/>
<path d="M116.935 72.4853C116.935 73.7767 115.888 74.8235 114.597 74.8235C113.305 74.8235 112.258 73.7767 112.258 72.4853C112.258 71.1939 113.305 70.1471 114.597 70.1471C115.888 70.1471 116.935 71.1939 116.935 72.4853Z" fill="#868686" fill-opacity="0.4"/>
<path d="M130.968 72.4853C130.968 73.7767 129.921 74.8235 128.629 74.8235C127.337 74.8235 126.29 73.7767 126.29 72.4853C126.29 71.1939 127.337 70.1471 128.629 70.1471C129.921 70.1471 130.968 71.1939 130.968 72.4853Z" fill="#868686" fill-opacity="0.4"/>
<path d="M145 72.4853C145 73.7767 143.953 74.8235 142.661 74.8235C141.37 74.8235 140.323 73.7767 140.323 72.4853C140.323 71.1939 141.37 70.1471 142.661 70.1471C143.953 70.1471 145 71.1939 145 72.4853Z" fill="#868686" fill-opacity="0.4"/>
<path d="M4.67742 86.5147C4.67742 87.8061 3.63034 88.8529 2.33871 88.8529C1.04708 88.8529 0 87.8061 0 86.5147C0 85.2233 1.04708 84.1765 2.33871 84.1765C3.63034 84.1765 4.67742 85.2233 4.67742 86.5147Z" fill="#868686" fill-opacity="0.4"/>
<path d="M18.7097 86.5147C18.7097 87.8061 17.6626 88.8529 16.371 88.8529C15.0793 88.8529 14.0323 87.8061 14.0323 86.5147C14.0323 85.2233 15.0793 84.1765 16.371 84.1765C17.6626 84.1765 18.7097 85.2233 18.7097 86.5147Z" fill="#868686" fill-opacity="0.4"/>
<path d="M32.7419 86.5147C32.7419 87.8061 31.6949 88.8529 30.4032 88.8529C29.1116 88.8529 28.0645 87.8061 28.0645 86.5147C28.0645 85.2233 29.1116 84.1765 30.4032 84.1765C31.6949 84.1765 32.7419 85.2233 32.7419 86.5147Z" fill="#868686" fill-opacity="0.4"/>
<path d="M46.7742 86.5147C46.7742 87.8061 45.7271 88.8529 44.4355 88.8529C43.1439 88.8529 42.0968 87.8061 42.0968 86.5147C42.0968 85.2233 43.1439 84.1765 44.4355 84.1765C45.7271 84.1765 46.7742 85.2233 46.7742 86.5147Z" fill="#868686" fill-opacity="0.4"/>
<path d="M60.8065 86.5147C60.8065 87.8061 59.7594 88.8529 58.4677 88.8529C57.1761 88.8529 56.129 87.8061 56.129 86.5147C56.129 85.2233 57.1761 84.1765 58.4677 84.1765C59.7594 84.1765 60.8065 85.2233 60.8065 86.5147Z" fill="#868686" fill-opacity="0.4"/>
<path d="M74.8387 86.5147C74.8387 87.8061 73.7916 88.8529 72.5 88.8529C71.2084 88.8529 70.1613 87.8061 70.1613 86.5147C70.1613 85.2233 71.2084 84.1765 72.5 84.1765C73.7916 84.1765 74.8387 85.2233 74.8387 86.5147Z" fill="#868686" fill-opacity="0.4"/>
<path d="M88.871 86.5147C88.871 87.8061 87.8239 88.8529 86.5323 88.8529C85.2406 88.8529 84.1936 87.8061 84.1936 86.5147C84.1936 85.2233 85.2406 84.1765 86.5323 84.1765C87.8239 84.1765 88.871 85.2233 88.871 86.5147Z" fill="#868686" fill-opacity="0.4"/>
<path d="M102.903 86.5147C102.903 87.8061 101.856 88.8529 100.565 88.8529C99.2729 88.8529 98.2258 87.8061 98.2258 86.5147C98.2258 85.2233 99.2729 84.1765 100.565 84.1765C101.856 84.1765 102.903 85.2233 102.903 86.5147Z" fill="#868686" fill-opacity="0.4"/>
<path d="M116.935 86.5147C116.935 87.8061 115.888 88.8529 114.597 88.8529C113.305 88.8529 112.258 87.8061 112.258 86.5147C112.258 85.2233 113.305 84.1765 114.597 84.1765C115.888 84.1765 116.935 85.2233 116.935 86.5147Z" fill="#868686" fill-opacity="0.4"/>
<path d="M130.968 86.5147C130.968 87.8061 129.921 88.8529 128.629 88.8529C127.337 88.8529 126.29 87.8061 126.29 86.5147C126.29 85.2233 127.337 84.1765 128.629 84.1765C129.921 84.1765 130.968 85.2233 130.968 86.5147Z" fill="#868686" fill-opacity="0.4"/>
<path d="M145 86.5147C145 87.8061 143.953 88.8529 142.661 88.8529C141.37 88.8529 140.323 87.8061 140.323 86.5147C140.323 85.2233 141.37 84.1765 142.661 84.1765C143.953 84.1765 145 85.2233 145 86.5147Z" fill="#868686" fill-opacity="0.4"/>
<path d="M4.67742 100.544C4.67742 101.835 3.63034 102.882 2.33871 102.882C1.04708 102.882 0 101.835 0 100.544C0 99.2527 1.04708 98.2059 2.33871 98.2059C3.63034 98.2059 4.67742 99.2527 4.67742 100.544Z" fill="#868686" fill-opacity="0.4"/>
<path d="M18.7097 100.544C18.7097 101.835 17.6626 102.882 16.371 102.882C15.0793 102.882 14.0323 101.835 14.0323 100.544C14.0323 99.2527 15.0793 98.2059 16.371 98.2059C17.6626 98.2059 18.7097 99.2527 18.7097 100.544Z" fill="#868686" fill-opacity="0.4"/>
<path d="M32.7419 100.544C32.7419 101.835 31.6949 102.882 30.4032 102.882C29.1116 102.882 28.0645 101.835 28.0645 100.544C28.0645 99.2527 29.1116 98.2059 30.4032 98.2059C31.6949 98.2059 32.7419 99.2527 32.7419 100.544Z" fill="#868686" fill-opacity="0.4"/>
<path d="M46.7742 100.544C46.7742 101.835 45.7271 102.882 44.4355 102.882C43.1439 102.882 42.0968 101.835 42.0968 100.544C42.0968 99.2527 43.1439 98.2059 44.4355 98.2059C45.7271 98.2059 46.7742 99.2527 46.7742 100.544Z" fill="#868686" fill-opacity="0.4"/>
<path d="M60.8065 100.544C60.8065 101.835 59.7594 102.882 58.4677 102.882C57.1761 102.882 56.129 101.835 56.129 100.544C56.129 99.2527 57.1761 98.2059 58.4677 98.2059C59.7594 98.2059 60.8065 99.2527 60.8065 100.544Z" fill="#868686" fill-opacity="0.4"/>
<path d="M74.8387 100.544C74.8387 101.835 73.7916 102.882 72.5 102.882C71.2084 102.882 70.1613 101.835 70.1613 100.544C70.1613 99.2527 71.2084 98.2059 72.5 98.2059C73.7916 98.2059 74.8387 99.2527 74.8387 100.544Z" fill="#868686" fill-opacity="0.4"/>
<path d="M88.871 100.544C88.871 101.835 87.8239 102.882 86.5323 102.882C85.2406 102.882 84.1936 101.835 84.1936 100.544C84.1936 99.2527 85.2406 98.2059 86.5323 98.2059C87.8239 98.2059 88.871 99.2527 88.871 100.544Z" fill="#868686" fill-opacity="0.4"/>
<path d="M102.903 100.544C102.903 101.835 101.856 102.882 100.565 102.882C99.2729 102.882 98.2258 101.835 98.2258 100.544C98.2258 99.2527 99.2729 98.2059 100.565 98.2059C101.856 98.2059 102.903 99.2527 102.903 100.544Z" fill="#868686" fill-opacity="0.4"/>
<path d="M116.935 100.544C116.935 101.835 115.888 102.882 114.597 102.882C113.305 102.882 112.258 101.835 112.258 100.544C112.258 99.2527 113.305 98.2059 114.597 98.2059C115.888 98.2059 116.935 99.2527 116.935 100.544Z" fill="#868686" fill-opacity="0.4"/>
<path d="M130.968 100.544C130.968 101.835 129.921 102.882 128.629 102.882C127.337 102.882 126.29 101.835 126.29 100.544C126.29 99.2527 127.337 98.2059 128.629 98.2059C129.921 98.2059 130.968 99.2527 130.968 100.544Z" fill="#868686" fill-opacity="0.4"/>
<path d="M145 100.544C145 101.835 143.953 102.882 142.661 102.882C141.37 102.882 140.323 101.835 140.323 100.544C140.323 99.2527 141.37 98.2059 142.661 98.2059C143.953 98.2059 145 99.2527 145 100.544Z" fill="#868686" fill-opacity="0.4"/>
<path d="M4.67742 114.574C4.67742 115.865 3.63034 116.912 2.33871 116.912C1.04708 116.912 0 115.865 0 114.574C0 113.282 1.04708 112.235 2.33871 112.235C3.63034 112.235 4.67742 113.282 4.67742 114.574Z" fill="#868686" fill-opacity="0.4"/>
<path d="M18.7097 114.574C18.7097 115.865 17.6626 116.912 16.371 116.912C15.0793 116.912 14.0323 115.865 14.0323 114.574C14.0323 113.282 15.0793 112.235 16.371 112.235C17.6626 112.235 18.7097 113.282 18.7097 114.574Z" fill="#868686" fill-opacity="0.4"/>
<path d="M32.7419 114.574C32.7419 115.865 31.6949 116.912 30.4032 116.912C29.1116 116.912 28.0645 115.865 28.0645 114.574C28.0645 113.282 29.1116 112.235 30.4032 112.235C31.6949 112.235 32.7419 113.282 32.7419 114.574Z" fill="#868686" fill-opacity="0.4"/>
<path d="M46.7742 114.574C46.7742 115.865 45.7271 116.912 44.4355 116.912C43.1439 116.912 42.0968 115.865 42.0968 114.574C42.0968 113.282 43.1439 112.235 44.4355 112.235C45.7271 112.235 46.7742 113.282 46.7742 114.574Z" fill="#868686" fill-opacity="0.4"/>
<path d="M60.8065 114.574C60.8065 115.865 59.7594 116.912 58.4677 116.912C57.1761 116.912 56.129 115.865 56.129 114.574C56.129 113.282 57.1761 112.235 58.4677 112.235C59.7594 112.235 60.8065 113.282 60.8065 114.574Z" fill="#868686" fill-opacity="0.4"/>
<path d="M74.8387 114.574C74.8387 115.865 73.7916 116.912 72.5 116.912C71.2084 116.912 70.1613 115.865 70.1613 114.574C70.1613 113.282 71.2084 112.235 72.5 112.235C73.7916 112.235 74.8387 113.282 74.8387 114.574Z" fill="#868686" fill-opacity="0.4"/>
<path d="M88.871 114.574C88.871 115.865 87.8239 116.912 86.5323 116.912C85.2406 116.912 84.1936 115.865 84.1936 114.574C84.1936 113.282 85.2406 112.235 86.5323 112.235C87.8239 112.235 88.871 113.282 88.871 114.574Z" fill="#868686" fill-opacity="0.4"/>
<path d="M102.903 114.574C102.903 115.865 101.856 116.912 100.565 116.912C99.2729 116.912 98.2258 115.865 98.2258 114.574C98.2258 113.282 99.2729 112.235 100.565 112.235C101.856 112.235 102.903 113.282 102.903 114.574Z" fill="#868686" fill-opacity="0.4"/>
<path d="M116.935 114.574C116.935 115.865 115.888 116.912 114.597 116.912C113.305 116.912 112.258 115.865 112.258 114.574C112.258 113.282 113.305 112.235 114.597 112.235C115.888 112.235 116.935 113.282 116.935 114.574Z" fill="#868686" fill-opacity="0.4"/>
<path d="M130.968 114.574C130.968 115.865 129.921 116.912 128.629 116.912C127.337 116.912 126.29 115.865 126.29 114.574C126.29 113.282 127.337 112.235 128.629 112.235C129.921 112.235 130.968 113.282 130.968 114.574Z" fill="#868686" fill-opacity="0.4"/>
<path d="M145 114.574C145 115.865 143.953 116.912 142.661 116.912C141.37 116.912 140.323 115.865 140.323 114.574C140.323 113.282 141.37 112.235 142.661 112.235C143.953 112.235 145 113.282 145 114.574Z" fill="#868686" fill-opacity="0.4"/>
<path d="M4.67742 128.603C4.67742 129.894 3.63034 130.941 2.33871 130.941C1.04708 130.941 0 129.894 0 128.603C0 127.312 1.04708 126.265 2.33871 126.265C3.63034 126.265 4.67742 127.312 4.67742 128.603Z" fill="#868686" fill-opacity="0.4"/>
<path d="M18.7097 128.603C18.7097 129.894 17.6626 130.941 16.371 130.941C15.0793 130.941 14.0323 129.894 14.0323 128.603C14.0323 127.312 15.0793 126.265 16.371 126.265C17.6626 126.265 18.7097 127.312 18.7097 128.603Z" fill="#868686" fill-opacity="0.4"/>
<path d="M32.7419 128.603C32.7419 129.894 31.6949 130.941 30.4032 130.941C29.1116 130.941 28.0645 129.894 28.0645 128.603C28.0645 127.312 29.1116 126.265 30.4032 126.265C31.6949 126.265 32.7419 127.312 32.7419 128.603Z" fill="#868686" fill-opacity="0.4"/>
<path d="M46.7742 128.603C46.7742 129.894 45.7271 130.941 44.4355 130.941C43.1439 130.941 42.0968 129.894 42.0968 128.603C42.0968 127.312 43.1439 126.265 44.4355 126.265C45.7271 126.265 46.7742 127.312 46.7742 128.603Z" fill="#868686" fill-opacity="0.4"/>
<path d="M60.8065 128.603C60.8065 129.894 59.7594 130.941 58.4677 130.941C57.1761 130.941 56.129 129.894 56.129 128.603C56.129 127.312 57.1761 126.265 58.4677 126.265C59.7594 126.265 60.8065 127.312 60.8065 128.603Z" fill="#868686" fill-opacity="0.4"/>
<path d="M74.8387 128.603C74.8387 129.894 73.7916 130.941 72.5 130.941C71.2084 130.941 70.1613 129.894 70.1613 128.603C70.1613 127.312 71.2084 126.265 72.5 126.265C73.7916 126.265 74.8387 127.312 74.8387 128.603Z" fill="#868686" fill-opacity="0.4"/>
<path d="M88.871 128.603C88.871 129.894 87.8239 130.941 86.5323 130.941C85.2406 130.941 84.1936 129.894 84.1936 128.603C84.1936 127.312 85.2406 126.265 86.5323 126.265C87.8239 126.265 88.871 127.312 88.871 128.603Z" fill="#868686" fill-opacity="0.4"/>
<path d="M102.903 128.603C102.903 129.894 101.856 130.941 100.565 130.941C99.2729 130.941 98.2258 129.894 98.2258 128.603C98.2258 127.312 99.2729 126.265 100.565 126.265C101.856 126.265 102.903 127.312 102.903 128.603Z" fill="#868686" fill-opacity="0.4"/>
<path d="M116.935 128.603C116.935 129.894 115.888 130.941 114.597 130.941C113.305 130.941 112.258 129.894 112.258 128.603C112.258 127.312 113.305 126.265 114.597 126.265C115.888 126.265 116.935 127.312 116.935 128.603Z" fill="#868686" fill-opacity="0.4"/>
<path d="M130.968 128.603C130.968 129.894 129.921 130.941 128.629 130.941C127.337 130.941 126.29 129.894 126.29 128.603C126.29 127.312 127.337 126.265 128.629 126.265C129.921 126.265 130.968 127.312 130.968 128.603Z" fill="#868686" fill-opacity="0.4"/>
<path d="M145 128.603C145 129.894 143.953 130.941 142.661 130.941C141.37 130.941 140.323 129.894 140.323 128.603C140.323 127.312 141.37 126.265 142.661 126.265C143.953 126.265 145 127.312 145 128.603Z" fill="#868686" fill-opacity="0.4"/>
<path d="M4.67742 142.632C4.67742 143.924 3.63034 144.971 2.33871 144.971C1.04708 144.971 0 143.924 0 142.632C0 141.341 1.04708 140.294 2.33871 140.294C3.63034 140.294 4.67742 141.341 4.67742 142.632Z" fill="#868686" fill-opacity="0.4"/>
<path d="M18.7097 142.632C18.7097 143.924 17.6626 144.971 16.371 144.971C15.0793 144.971 14.0323 143.924 14.0323 142.632C14.0323 141.341 15.0793 140.294 16.371 140.294C17.6626 140.294 18.7097 141.341 18.7097 142.632Z" fill="#868686" fill-opacity="0.4"/>
<path d="M32.7419 142.632C32.7419 143.924 31.6949 144.971 30.4032 144.971C29.1116 144.971 28.0645 143.924 28.0645 142.632C28.0645 141.341 29.1116 140.294 30.4032 140.294C31.6949 140.294 32.7419 141.341 32.7419 142.632Z" fill="#868686" fill-opacity="0.4"/>
<path d="M46.7742 142.632C46.7742 143.924 45.7271 144.971 44.4355 144.971C43.1439 144.971 42.0968 143.924 42.0968 142.632C42.0968 141.341 43.1439 140.294 44.4355 140.294C45.7271 140.294 46.7742 141.341 46.7742 142.632Z" fill="#868686" fill-opacity="0.4"/>
<path d="M60.8065 142.632C60.8065 143.924 59.7594 144.971 58.4677 144.971C57.1761 144.971 56.129 143.924 56.129 142.632C56.129 141.341 57.1761 140.294 58.4677 140.294C59.7594 140.294 60.8065 141.341 60.8065 142.632Z" fill="#868686" fill-opacity="0.4"/>
<path d="M74.8387 142.632C74.8387 143.924 73.7916 144.971 72.5 144.971C71.2084 144.971 70.1613 143.924 70.1613 142.632C70.1613 141.341 71.2084 140.294 72.5 140.294C73.7916 140.294 74.8387 141.341 74.8387 142.632Z" fill="#868686" fill-opacity="0.4"/>
<path d="M88.871 142.632C88.871 143.924 87.8239 144.971 86.5323 144.971C85.2406 144.971 84.1936 143.924 84.1936 142.632C84.1936 141.341 85.2406 140.294 86.5323 140.294C87.8239 140.294 88.871 141.341 88.871 142.632Z" fill="#868686" fill-opacity="0.4"/>
<path d="M102.903 142.632C102.903 143.924 101.856 144.971 100.565 144.971C99.2729 144.971 98.2258 143.924 98.2258 142.632C98.2258 141.341 99.2729 140.294 100.565 140.294C101.856 140.294 102.903 141.341 102.903 142.632Z" fill="#868686" fill-opacity="0.4"/>
<path d="M116.935 142.632C116.935 143.924 115.888 144.971 114.597 144.971C113.305 144.971 112.258 143.924 112.258 142.632C112.258 141.341 113.305 140.294 114.597 140.294C115.888 140.294 116.935 141.341 116.935 142.632Z" fill="#868686" fill-opacity="0.4"/>
<path d="M130.968 142.632C130.968 143.924 129.921 144.971 128.629 144.971C127.337 144.971 126.29 143.924 126.29 142.632C126.29 141.341 127.337 140.294 128.629 140.294C129.921 140.294 130.968 141.341 130.968 142.632Z" fill="#868686" fill-opacity="0.4"/>
<path d="M145 142.632C145 143.924 143.953 144.971 142.661 144.971C141.37 144.971 140.323 143.924 140.323 142.632C140.323 141.341 141.37 140.294 142.661 140.294C143.953 140.294 145 141.341 145 142.632Z" fill="#868686" fill-opacity="0.4"/>
<path d="M4.67742 156.662C4.67742 157.953 3.63034 159 2.33871 159C1.04708 159 0 157.953 0 156.662C0 155.37 1.04708 154.324 2.33871 154.324C3.63034 154.324 4.67742 155.37 4.67742 156.662Z" fill="#868686" fill-opacity="0.4"/>
<path d="M18.7097 156.662C18.7097 157.953 17.6626 159 16.371 159C15.0793 159 14.0323 157.953 14.0323 156.662C14.0323 155.37 15.0793 154.324 16.371 154.324C17.6626 154.324 18.7097 155.37 18.7097 156.662Z" fill="#868686" fill-opacity="0.4"/>
<path d="M32.7419 156.662C32.7419 157.953 31.6949 159 30.4032 159C29.1116 159 28.0645 157.953 28.0645 156.662C28.0645 155.37 29.1116 154.324 30.4032 154.324C31.6949 154.324 32.7419 155.37 32.7419 156.662Z" fill="#868686" fill-opacity="0.4"/>
<path d="M46.7742 156.662C46.7742 157.953 45.7271 159 44.4355 159C43.1439 159 42.0968 157.953 42.0968 156.662C42.0968 155.37 43.1439 154.324 44.4355 154.324C45.7271 154.324 46.7742 155.37 46.7742 156.662Z" fill="#868686" fill-opacity="0.4"/>
<path d="M60.8065 156.662C60.8065 157.953 59.7594 159 58.4677 159C57.1761 159 56.129 157.953 56.129 156.662C56.129 155.37 57.1761 154.324 58.4677 154.324C59.7594 154.324 60.8065 155.37 60.8065 156.662Z" fill="#868686" fill-opacity="0.4"/>
<path d="M74.8387 156.662C74.8387 157.953 73.7916 159 72.5 159C71.2084 159 70.1613 157.953 70.1613 156.662C70.1613 155.37 71.2084 154.324 72.5 154.324C73.7916 154.324 74.8387 155.37 74.8387 156.662Z" fill="#868686" fill-opacity="0.4"/>
<path d="M88.871 156.662C88.871 157.953 87.8239 159 86.5323 159C85.2406 159 84.1936 157.953 84.1936 156.662C84.1936 155.37 85.2406 154.324 86.5323 154.324C87.8239 154.324 88.871 155.37 88.871 156.662Z" fill="#868686" fill-opacity="0.4"/>
<path d="M102.903 156.662C102.903 157.953 101.856 159 100.565 159C99.2729 159 98.2258 157.953 98.2258 156.662C98.2258 155.37 99.2729 154.324 100.565 154.324C101.856 154.324 102.903 155.37 102.903 156.662Z" fill="#868686" fill-opacity="0.4"/>
<path d="M116.935 156.662C116.935 157.953 115.888 159 114.597 159C113.305 159 112.258 157.953 112.258 156.662C112.258 155.37 113.305 154.324 114.597 154.324C115.888 154.324 116.935 155.37 116.935 156.662Z" fill="#868686" fill-opacity="0.4"/>
<path d="M130.968 156.662C130.968 157.953 129.921 159 128.629 159C127.337 159 126.29 157.953 126.29 156.662C126.29 155.37 127.337 154.324 128.629 154.324C129.921 154.324 130.968 155.37 130.968 156.662Z" fill="#868686" fill-opacity="0.4"/>
<path d="M145 156.662C145 157.953 143.953 159 142.661 159C141.37 159 140.323 157.953 140.323 156.662C140.323 155.37 141.37 154.324 142.661 154.324C143.953 154.324 145 155.37 145 156.662Z" fill="#868686" fill-opacity="0.4"/>
</svg>
