<svg width="239" height="239" viewBox="0 0 239 239" fill="none" xmlns="http://www.w3.org/2000/svg">
<mask id="mask0_2_223" style="mask-type:luminance" maskUnits="userSpaceOnUse" x="0" y="0" width="239" height="239">
<path d="M0 1.52588e-05H239V239H0V1.52588e-05Z" fill="white"/>
</mask>
<g mask="url(#mask0_2_223)">
<path d="M25.3068 55.4728C23.9606 55.4728 22.866 56.5677 22.866 57.9139C22.866 59.2604 23.9606 60.3547 25.3068 60.3547C26.653 60.3547 27.7482 59.2604 27.7482 57.9139C27.7482 56.5677 26.653 55.4728 25.3068 55.4728ZM25.3068 61.2004C23.4946 61.2004 22.0203 59.7261 22.0203 57.9139C22.0203 56.1014 23.4946 54.627 25.3068 54.627C27.1193 54.627 28.5937 56.1014 28.5937 57.9139C28.5937 59.7261 27.1193 61.2004 25.3068 61.2004Z" fill="white" fill-opacity="0.34"/>
<path d="M212.234 60.7777C210.652 60.7777 209.37 59.496 209.37 57.9142C209.37 56.332 210.652 55.05 212.234 55.05C213.816 55.05 215.098 56.332 215.098 57.9142C215.098 59.496 213.816 60.7777 212.234 60.7777ZM193.459 76.0525C191.877 76.0525 190.595 74.7705 190.595 73.1887C190.595 71.6068 191.877 70.3245 193.459 70.3245C195.04 70.3245 196.322 71.6068 196.322 73.1887C196.322 74.7705 195.04 76.0525 193.459 76.0525ZM174.684 90.6909C173.102 90.6909 171.819 89.4084 171.819 87.8271C171.819 86.2449 173.102 84.9633 174.684 84.9633C176.265 84.9633 177.547 86.2449 177.547 87.8271C177.547 89.4084 176.265 90.6909 174.684 90.6909ZM173.458 116.371C173.377 116.445 173.292 116.524 173.209 116.599L155.857 96.6674C156.933 95.7057 157.987 94.7671 159.014 93.8532L168.531 104.251C168.437 108.104 171.158 112.598 173.458 116.371ZM169.855 119.669C162.425 126.482 151.874 136.155 139.766 146.295C133.583 140.242 127.256 134.16 121.115 128.332C133.151 117.14 144.974 106.398 154.907 97.5159L172.269 117.458C171.507 118.155 170.705 118.891 169.855 119.669ZM67.6854 119.669C66.8361 118.891 66.0333 118.155 65.2715 117.458L82.634 97.5159C114.707 126.197 166.477 174.247 181.552 194.349C145.005 190.565 90.9951 141.043 67.6854 119.669ZM55.9885 194.349C63.0554 184.925 78.1871 169.359 95.5728 152.526L113.751 166.619C93.9599 180.823 73.0674 192.581 55.9885 194.349ZM64.0819 116.371C66.3826 112.598 69.1039 108.104 69.0092 104.251L78.527 93.8532C79.5541 94.7671 80.6069 95.7057 81.6839 96.6674L64.3316 116.599C64.2492 116.524 64.1632 116.445 64.0819 116.371ZM62.857 90.6909C61.2751 90.6909 59.9932 89.4084 59.9932 87.8271C59.9932 86.2449 61.2751 84.9633 62.857 84.9633C64.4389 84.9633 65.7211 86.2449 65.7211 87.8271C65.7211 89.4084 64.4389 90.6909 62.857 90.6909ZM44.0824 76.0525C42.5005 76.0525 41.2183 74.7705 41.2183 73.1887C41.2183 71.6068 42.5005 70.3245 44.0824 70.3245C45.664 70.3245 46.9465 71.6068 46.9465 73.1887C46.9465 74.7705 45.664 76.0525 44.0824 76.0525ZM25.3065 60.7777C23.725 60.7777 22.443 59.496 22.443 57.9142C22.443 56.332 23.725 55.05 25.3065 55.05C26.8887 55.05 28.1707 56.332 28.1707 57.9142C28.1707 59.496 26.8887 60.7777 25.3065 60.7777ZM144.975 91.0378C144.407 90.7665 143.832 90.5099 143.26 90.2455C142.686 89.9865 142.102 89.7496 141.524 89.5004C140.357 89.0224 139.179 88.571 137.987 88.1551C136.794 87.7408 135.59 87.3572 134.374 87.0097C131.943 86.3139 129.468 85.7559 126.965 85.3427C124.463 84.9292 121.933 84.6601 119.392 84.5403C118.122 84.4808 116.849 84.4593 115.575 84.4715C114.302 84.4874 113.028 84.5412 111.756 84.6278C111.12 84.6675 110.486 84.7359 109.85 84.7897C109.215 84.8501 108.582 84.9355 107.948 85.0081C107.314 85.0888 106.684 85.1912 106.051 85.2818C105.421 85.3824 104.793 85.5019 104.163 85.6119C103.536 85.7329 102.911 85.8691 102.284 85.9976L100.416 86.4382L98.5612 86.9335L96.72 87.4835L94.8947 88.0873L93.0872 88.7446L93.0666 88.7529C93.0603 88.7123 93.0553 88.6723 93.0496 88.6313L92.8694 87.3333C92.804 86.8995 92.7649 86.4681 92.7132 86.0352L92.5752 84.8175C92.8933 84.6792 93.2471 84.5403 93.6321 84.3867C94.0713 84.206 94.5529 84.0276 95.0712 83.8424C95.586 83.6485 96.1423 83.4624 96.7299 83.2691C97.3139 83.0662 97.9401 82.8864 98.5908 82.6859C99.2406 82.4867 99.9277 82.3101 100.635 82.1108C101.348 81.9367 102.081 81.735 102.845 81.5674C104.367 81.2092 105.988 80.897 107.672 80.6057C109.359 80.3372 111.109 80.0769 112.898 79.9078C113.79 79.8045 114.695 79.751 115.601 79.6751C116.509 79.6279 117.421 79.5613 118.334 79.544C120.161 79.4753 121.989 79.4974 123.788 79.5694C125.586 79.6411 127.351 79.8066 129.054 80.0124C130.752 80.2463 132.393 80.508 133.925 80.8668C135.465 81.1967 136.894 81.6188 138.204 82.0352C138.858 82.2521 139.473 82.4882 140.064 82.6976C140.643 82.9384 141.193 83.166 141.71 83.3799C142.218 83.6124 142.687 83.8451 143.126 84.0521C143.568 84.2538 143.946 84.4901 144.303 84.6759C144.771 84.9197 145.149 85.1518 145.463 85.3496L145.559 89.5422C145.578 90.1436 145.596 90.748 145.626 91.3607L144.975 91.0378ZM87.5559 64.9551C84.7676 64.6593 81.3326 63.9713 77.7509 62.4477C75.9694 61.6856 74.1528 60.7072 72.5225 59.4387C71.7108 58.805 70.9484 58.0997 70.2863 57.3256C69.6404 56.5456 69.0755 55.7049 68.7056 54.806C68.5034 54.3602 68.3779 53.8954 68.2638 53.4255C68.1625 52.9534 68.1153 52.4683 68.0995 51.9738C68.104 50.9826 68.2677 49.9405 68.6689 48.8785C69.443 46.7496 70.9764 44.5959 72.9049 42.6191C73.3909 42.1255 73.8887 41.6323 74.4201 41.1555C74.678 40.912 74.9486 40.6763 75.2241 40.4421L75.6351 40.0884L75.7376 39.9993C75.7896 39.9563 75.7233 40.0092 75.7517 39.9868L75.8081 39.9417L76.034 39.7606C76.4953 39.3962 77.0479 39.0224 77.6326 38.6836C78.2184 38.3425 78.844 38.024 79.4974 37.7243C82.121 36.5269 85.142 35.6322 88.2636 34.7646C91.3957 33.8992 94.6616 33.0731 97.973 32.0678C100.796 31.2107 103.66 30.2248 106.478 28.9507C106.464 28.9662 106.45 28.9808 106.436 28.9967C106.284 29.1649 106.13 29.3343 105.974 29.506C105.81 29.6707 105.646 29.8362 105.48 30.0043C105.147 30.3398 104.808 30.681 104.466 31.027C104.107 31.3562 103.743 31.6896 103.376 32.0251C102.655 32.7155 101.855 33.3354 101.072 33.9843C100.686 34.3165 100.274 34.6129 99.8635 34.9095C99.4536 35.2086 99.0455 35.5067 98.6404 35.8028L98.3369 36.0245L98.0223 36.2264C97.8132 36.3605 97.6049 36.4947 97.3985 36.6279C96.9829 36.895 96.573 37.1582 96.17 37.4175C95.7724 37.6897 95.3488 37.8958 94.9481 38.128C94.5445 38.3529 94.149 38.5737 93.7639 38.7885C93.0036 39.242 92.2322 39.5614 91.5391 39.9031C91.1908 40.0689 90.8556 40.2282 90.5377 40.3796C90.3782 40.4552 90.2228 40.5293 90.0716 40.6007C89.9172 40.6622 89.7663 40.722 89.6202 40.7803C89.0353 41.0112 88.5253 41.2134 88.105 41.3795C87.2625 41.713 86.7806 41.903 86.7806 41.903C86.7806 41.903 87.2804 41.7694 88.1555 41.5358C88.5949 41.4181 89.1276 41.2756 89.7394 41.1119C89.8927 41.0709 90.0504 41.0282 90.213 40.9846C90.3725 40.9302 90.5359 40.8744 90.7035 40.817C91.0405 40.7026 91.3948 40.5816 91.7638 40.4561C92.4987 40.1935 93.3188 39.959 94.1373 39.5918C94.5517 39.4195 94.978 39.242 95.4139 39.0616C95.8468 38.8736 96.3048 38.7117 96.7391 38.4829C97.1813 38.2669 97.6297 38.0464 98.0838 37.8235C98.3118 37.7118 98.5406 37.5995 98.7701 37.4868L99.1169 37.3166L99.4536 37.1259C99.9047 36.8708 100.359 36.6136 100.815 36.3546C101.273 36.0977 101.734 35.8401 102.172 35.5456C103.056 34.9711 103.963 34.4205 104.794 33.7916C105.217 33.4851 105.638 33.1813 106.051 32.881C106.452 32.5614 106.848 32.2456 107.237 31.9346C107.432 31.7789 107.625 31.6236 107.816 31.4703C108.001 31.3096 108.184 31.1501 108.365 30.992C108.727 30.6739 109.081 30.3626 109.425 30.0599C109.758 29.743 110.081 29.4343 110.395 29.1356C110.71 28.8383 111.009 28.5455 111.284 28.2507C111.564 27.9594 111.832 27.681 112.087 27.4157C112.332 27.1396 112.566 26.8779 112.785 26.6324C113.226 26.1421 113.586 25.6847 113.891 25.3143C114.187 24.9334 114.42 24.6349 114.587 24.3944C114.739 24.1793 114.82 24.0652 114.82 24.0652L114.67 23.9747C114.769 23.8928 114.872 23.8157 114.97 23.7321C115.332 23.425 115.691 23.111 116.038 22.7818L116.512 22.3381C116.668 22.1932 116.841 22.0265 116.968 21.9226C117.229 21.6895 117.531 21.4413 117.831 21.2071C118.134 20.9746 118.442 20.7542 118.756 20.5459C119.386 20.1307 120.04 19.7695 120.715 19.471C122.065 18.8744 123.5 18.5219 124.976 18.4544C127.933 18.3005 131.004 19.2658 133.811 20.8139C136.629 22.3671 139.218 24.4625 141.553 26.7886C142.722 27.9543 143.832 29.1792 144.881 30.451C145.406 31.0864 145.917 31.7326 146.413 32.3875C146.66 32.7155 146.905 33.045 147.145 33.3778L147.503 33.877L147.714 34.1731L147.903 34.4283C148.389 35.0915 148.927 35.7045 149.497 36.2751C149.804 36.8583 150.223 37.6377 150.741 38.5612C151.854 40.5565 153.399 43.1819 155.101 45.7078C155.524 46.3403 155.961 46.965 156.398 47.5732C156.837 48.1818 157.282 48.7703 157.719 49.3341C158.163 49.8936 158.6 50.4272 159.03 50.9213C159.461 51.4143 159.883 51.8681 160.284 52.2744C160.488 52.4733 160.679 52.6687 160.87 52.8459C161.062 53.0195 161.245 53.185 161.418 53.3406C161.776 53.6358 162.085 53.8936 162.36 54.0812C162.622 54.2823 162.849 54.4131 162.998 54.5072C163.148 54.6007 163.228 54.65 163.228 54.65C163.228 54.65 163.155 54.5903 163.019 54.478C162.883 54.365 162.679 54.2076 162.446 53.9758C162.203 53.7571 161.933 53.4634 161.623 53.1312C161.476 52.9579 161.32 52.773 161.155 52.5788C160.992 52.3819 160.831 52.1668 160.659 51.9478C160.322 51.5018 159.972 51.0068 159.617 50.4735C159.264 49.9396 158.908 49.3649 158.55 48.7653C158.198 48.1612 157.842 47.5332 157.496 46.8861C157.149 46.2387 156.806 45.5773 156.477 44.9078C155.601 43.1446 154.8 41.3515 154.117 39.7352C154.926 40.2016 155.74 40.6264 156.548 41.0249C159.618 42.5145 162.616 43.6665 165.315 45.0548C166.662 45.7413 167.948 46.4906 169.092 47.3106C170.146 48.0769 171.091 49.0616 171.862 50.1395C173.41 52.3054 174.326 54.881 174.525 57.3678C174.731 59.8578 174.17 62.2574 172.919 64.0535C172.3 64.9569 171.519 65.7127 170.635 66.3138C170.194 66.615 169.728 66.8784 169.247 67.107L168.898 67.2662L168.477 67.4416C168.197 67.5584 167.918 67.6749 167.642 67.7899C165.512 68.6617 163.39 69.3662 161.396 69.9197C157.393 71.0305 153.792 71.5443 150.827 71.7257C148.59 71.8661 146.715 71.8267 145.258 71.7287C145.184 71.6627 145.113 71.593 145.038 71.5288C144.034 70.6615 142.943 69.9176 141.809 69.2807C141.31 69.0002 140.802 68.7442 140.289 68.5031C140.299 68.4995 140.309 68.4959 140.32 68.492C141.436 68.0714 142.572 67.611 143.695 67.101C144.825 66.6003 145.941 66.0536 147.053 65.5057C149.27 64.4021 151.434 63.2507 153.49 62.2679C154.518 61.774 155.519 61.3244 156.485 60.951C157.448 60.5623 158.381 60.2761 159.254 60.0604C159.474 60.0132 159.689 59.9675 159.899 59.9227C160.11 59.8752 160.317 59.8611 160.52 59.8295C160.926 59.759 161.312 59.761 161.678 59.7419C162.042 59.7366 162.382 59.7754 162.7 59.7939C163.009 59.8539 163.299 59.8985 163.557 59.9588C163.809 60.0404 164.034 60.1142 164.23 60.1778C164.427 60.2438 164.577 60.3382 164.708 60.3953C164.967 60.5213 165.105 60.5886 165.105 60.5886C165.105 60.5886 164.976 60.5046 164.734 60.3487C164.61 60.2755 164.468 60.1614 164.279 60.0705C164.088 59.9812 163.867 59.8784 163.62 59.764C163.365 59.6699 163.074 59.5878 162.758 59.4862C162.435 59.4264 162.082 59.3425 161.702 59.3019C161.321 59.2747 160.91 59.2245 160.481 59.2457C160.267 59.2523 160.043 59.2418 159.819 59.2639C159.594 59.2836 159.364 59.3042 159.128 59.3255C158.193 59.4375 157.184 59.6191 156.147 59.8964C155.105 60.1608 154.025 60.4951 152.923 60.8679C150.717 61.6106 148.418 62.4955 146.12 63.309C144.971 63.7108 143.825 64.1082 142.693 64.4526C141.563 64.8081 140.447 65.1084 139.369 65.371C138.288 65.6165 137.246 65.834 136.26 65.964C136.014 65.9989 135.772 66.0327 135.533 66.0659C135.294 66.0883 135.059 66.1104 134.828 66.1322C134.367 66.1857 133.923 66.2012 133.499 66.2176C133.393 66.2239 133.292 66.2236 133.189 66.2266C131.221 65.8191 129.241 65.5508 127.262 65.3883C125.154 65.2105 123.047 65.1574 120.947 65.1747C121.66 64.7541 122.385 64.3161 123.119 63.8566C125.54 62.3443 128.047 60.6274 130.47 58.8045C135.313 55.1633 139.826 51.0626 142.615 47.4549C144.009 45.6588 144.953 43.9718 145.299 42.68C145.478 42.0383 145.51 41.5104 145.487 41.1582C145.48 40.9813 145.457 40.8478 145.438 40.7585C145.422 40.6691 145.413 40.6237 145.413 40.6237C145.413 40.6237 145.417 40.67 145.425 40.7605C145.436 40.8508 145.447 40.9843 145.437 41.1591C145.428 41.5068 145.348 42.0162 145.117 42.6212C144.666 43.8374 143.602 45.3843 142.085 47.0041C139.047 50.2602 134.26 53.8589 129.214 56.9647C126.689 58.5206 124.098 59.9609 121.624 61.2028C119.151 62.4477 116.798 63.4963 114.759 64.3056C113.01 65.0002 111.499 65.5224 110.343 65.8842C108.631 66.0889 106.925 66.3303 105.226 66.6087C104.765 66.6837 104.305 66.7646 103.845 66.8456C103.657 66.7996 103.461 66.75 103.251 66.6953C102.675 66.5409 102.02 66.3461 101.306 66.1104C100.594 65.872 99.8193 65.6043 99.0129 65.284C98.2018 64.9721 97.3596 64.6098 96.4924 64.2205C95.6335 63.8181 94.7456 63.3927 93.8723 62.9117C92.9895 62.4438 92.1264 61.9168 91.2708 61.3734C90.431 60.8118 89.5978 60.2316 88.8324 59.5985C88.6406 59.4405 88.4458 59.2866 88.2588 59.1268C88.0757 58.9619 87.8947 58.7976 87.7145 58.6348C87.3417 58.3163 87.0259 57.959 86.6859 57.6262C86.3665 57.2799 86.0615 56.9283 85.7711 56.5779C85.634 56.3968 85.4987 56.2173 85.3645 56.0404C85.2979 55.9511 85.231 55.8627 85.1638 55.7745C85.1019 55.6846 85.0461 55.5917 84.9869 55.5012C84.7551 55.1361 84.5152 54.7851 84.3398 54.4167C84.2445 54.2354 84.1507 54.0567 84.059 53.8813C83.9742 53.7033 83.9087 53.5214 83.8343 53.346C83.7617 53.1694 83.6909 52.9964 83.6222 52.8274C83.57 52.6523 83.5195 52.4814 83.4696 52.3147C83.4206 52.1474 83.3719 51.9837 83.3259 51.8248C83.2805 51.6649 83.2637 51.5051 83.2327 51.3521C83.1861 51.0441 83.1078 50.7555 83.0961 50.484C83.0788 50.2118 83.0627 49.9614 83.0483 49.7356C83.0238 49.5079 83.0441 49.3063 83.0525 49.1294C83.0609 48.9523 83.0689 48.8011 83.0746 48.6795C83.0878 48.4336 83.0946 48.3025 83.0946 48.3025C83.0946 48.3025 83.0689 48.4306 83.0217 48.6714C82.9978 48.7927 82.9692 48.9418 82.9342 49.1175C82.9013 49.2937 82.8518 49.496 82.8437 49.7272C82.8252 49.959 82.8054 50.2151 82.7833 50.4947C82.7561 50.7753 82.7923 51.0776 82.7956 51.4044C82.8046 51.5666 82.7989 51.7381 82.8222 51.9093C82.847 52.0817 82.8721 52.2585 82.8978 52.4399C82.9252 52.6227 82.9533 52.81 82.9823 53.0018C83.0289 53.1897 83.0767 53.3815 83.126 53.5781C83.1771 53.7741 83.2207 53.9784 83.2828 54.1801C83.354 54.38 83.4248 54.5828 83.4974 54.7892C83.6306 55.2111 83.8296 55.6171 84.0229 56.0446C84.0718 56.1507 84.1184 56.2597 84.1713 56.3658C84.2281 56.4694 84.2855 56.5734 84.3431 56.6783C84.4593 56.8886 84.5773 57.1016 84.6956 57.3167C84.9517 57.7346 85.2235 58.1577 85.5133 58.5783C85.8207 58.9816 86.112 59.419 86.4565 59.8127C86.6244 60.0141 86.7932 60.2175 86.9634 60.4219C87.1376 60.6212 87.3202 60.8138 87.5012 61.0116C88.2224 61.8048 89.0147 62.5457 89.8231 63.2708C90.564 63.9068 91.3204 64.5249 92.0927 65.1021C90.8472 65.1547 89.3254 65.1376 87.5559 64.9551ZM92.346 82.1407L92.2701 80.845C92.2409 80.4118 92.2421 79.9852 92.2256 79.5535L92.2074 78.9073L92.2089 78.2662C92.2122 77.8393 92.2065 77.4079 92.2298 76.987C92.2457 76.5633 92.2561 76.1358 92.294 75.7206L92.3413 75.0926L92.4106 74.4766C92.4306 74.2683 92.4643 74.0712 92.4945 73.8707C92.5235 73.6682 92.5566 73.4707 92.597 73.2819C92.6295 73.1038 92.6687 72.941 92.7084 72.7797C92.7374 72.7689 92.7679 72.7582 92.7953 72.7477C93.058 72.6551 93.3286 72.5658 93.6038 72.4788C94.1538 72.3053 94.7178 72.1421 95.2851 71.9856C96.4201 71.6722 97.5727 71.3863 98.7312 71.1207C101.048 70.5895 103.39 70.1342 105.74 69.7488C110.443 68.9787 115.191 68.4803 119.929 68.3674C122.295 68.3199 124.66 68.3624 127 68.5598C129.34 68.7507 131.657 69.0901 133.899 69.6425C136.137 70.1937 138.307 70.9618 140.25 72.0555C142.074 73.0763 143.682 74.3962 144.898 76.005C145.24 78.8984 145.371 81.8545 145.452 84.8316L145.462 85.2859C145.161 85.0792 144.801 84.8372 144.357 84.5818C144.008 84.3792 143.638 84.1256 143.204 83.9039C142.773 83.6772 142.311 83.4235 141.81 83.1669C141.299 82.9291 140.756 82.6758 140.183 82.409C139.597 82.1724 138.986 81.9074 138.338 81.6606C137.035 81.1832 135.609 80.6942 134.067 80.2932C132.532 79.8633 130.885 79.5272 129.174 79.215C127.459 78.933 125.676 78.6878 123.855 78.536C122.034 78.3845 120.178 78.2812 118.321 78.271C117.392 78.2489 116.464 78.2761 115.538 78.2844C114.614 78.3215 113.691 78.3367 112.778 78.4022C110.949 78.496 109.156 78.6833 107.422 78.8831C105.692 79.1057 104.02 79.354 102.445 79.6542C101.656 79.7913 100.894 79.9655 100.154 80.1125C99.4189 80.2864 98.7046 80.4375 98.0253 80.6135C97.3456 80.7913 96.6922 80.9496 96.078 81.1327C95.4611 81.3066 94.8764 81.4748 94.3312 81.6535C93.7848 81.8219 93.2742 81.9869 92.8067 82.1559C92.6507 82.2103 92.5059 82.2608 92.3583 82.3119C92.3553 82.2545 92.3484 82.1975 92.346 82.1407ZM223.129 51.782C219.532 41.0363 208.639 43.7304 203.813 48.3446C201.038 50.9978 167.263 81.4348 158.539 89.5076C157.641 90.3061 156.273 91.525 154.512 93.1015L154.381 93.2154L154.383 93.2174C153.154 94.3171 151.775 95.5904 150.209 97.0083L149.424 93.7062V93.7053C149.424 93.5004 149.15 93.1625 149.109 92.8198C149.068 92.4724 148.952 92.1085 148.927 91.7348C148.875 90.99 148.812 90.2177 148.789 89.4448L148.657 84.7464C148.571 81.5907 148.426 78.4063 148.024 75.1989L147.974 74.8357C148.9 74.8488 149.905 74.8372 150.996 74.7849C154.155 74.6391 157.981 74.1503 162.235 73.0375C164.367 72.4788 166.58 71.7827 168.901 70.873C169.179 70.7616 169.46 70.6499 169.741 70.5372L170.165 70.3679L170.657 70.1536C171.29 69.8657 171.916 69.5251 172.52 69.126C173.729 68.3304 174.85 67.2859 175.737 66.03C176.632 64.7797 177.282 63.3308 177.669 61.8117C178.055 60.2904 178.182 58.7005 178.08 57.1168C177.869 53.9494 176.795 50.7863 174.884 48.013C173.921 46.6289 172.753 45.3538 171.32 44.2774C169.966 43.2754 168.547 42.4288 167.088 41.6553C164.177 40.109 161.145 38.8916 158.321 37.4632C155.509 36.0379 152.9 34.358 151.236 31.9922L151.05 31.7347L150.896 31.5106L150.522 30.9711C150.27 30.612 150.013 30.2556 149.754 29.9007C149.233 29.1909 148.696 28.4906 148.141 27.7984C147.035 26.414 145.853 25.0711 144.597 23.7799C142.082 21.2044 139.255 18.8192 135.977 16.9439C134.337 16.0121 132.58 15.2159 130.702 14.6584C128.828 14.0986 126.822 13.8002 124.791 13.8668C122.761 13.9265 120.724 14.3914 118.86 15.1846C117.927 15.5807 117.037 16.0563 116.198 16.5923C115.779 16.8608 115.371 17.1429 114.976 17.438C114.583 17.7338 114.203 18.0349 113.809 18.377C113.599 18.5521 113.456 18.6877 113.291 18.8365L112.802 19.2804C112.512 19.5478 112.21 19.8038 111.905 20.0554C111.292 20.5579 110.654 21.0338 109.991 21.4792C108.664 22.371 107.253 23.1582 105.787 23.8573C102.85 25.2524 99.7171 26.307 96.5408 27.2185C93.3618 28.1324 90.1338 28.8996 86.9148 29.7367C83.6969 30.5857 80.4728 31.4628 77.3078 32.8431C76.5186 33.1908 75.7331 33.5741 74.96 34.0085C74.1856 34.4441 73.4334 34.9248 72.6727 35.5082L72.4445 35.6866L72.2897 35.81L72.172 35.9082L71.7018 36.3002C71.3878 36.5598 71.0774 36.8224 70.7751 37.0979C70.1626 37.6332 69.572 38.1976 68.9927 38.7691C67.8405 39.9216 66.7602 41.1555 65.8039 42.5034C64.8485 43.8508 64.0162 45.3177 63.4037 46.9103C62.7823 48.4943 62.4376 50.239 62.4167 51.9813C62.422 52.8542 62.4988 53.7236 62.6652 54.5676C62.8439 55.4053 63.0709 56.2283 63.393 56.9904C64.0084 58.5341 64.8831 59.8665 65.8245 61.0334C66.7799 62.1893 67.8216 63.1728 68.8852 64.029C71.0198 65.7381 73.2329 66.9543 75.3603 67.9065C77.4925 68.8541 79.5509 69.5329 81.4841 70.0294C83.4167 70.5298 85.225 70.8426 86.8744 71.0427C87.9171 71.1667 88.8883 71.2369 89.7983 71.2758C89.7959 71.2808 89.792 71.2886 89.7899 71.294C89.735 71.4204 89.6719 71.5569 89.6292 71.6749C89.5333 71.9208 89.4431 72.1648 89.3696 72.4006C89.2859 72.6407 89.2154 72.8777 89.1518 73.1116C89.0849 73.3476 89.0153 73.5848 88.963 73.8169L88.7951 74.5193L88.6538 75.2175C88.554 75.6847 88.485 76.1475 88.4097 76.612C88.3272 77.0781 88.2756 77.5391 88.2152 78.0024L88.1286 78.6979L88.0628 79.3907C88.0231 79.852 87.966 80.3168 87.9407 80.7763L87.8519 82.1598C87.8164 82.6229 87.8134 83.0794 87.7925 83.5401C87.7775 84.0001 87.7554 84.4617 87.7471 84.9209L87.7336 86.2969C87.7327 86.7555 87.7178 87.2177 87.7306 87.6732L87.7515 89.046C87.762 89.5031 87.7587 89.9641 87.7808 90.4191L87.8878 93.1586L88.0372 96.9778L92.0171 95.4632L93.5993 94.6963L95.2042 93.9748L96.8303 93.2996L98.4764 92.6731L100.141 92.0936L101.823 91.563L103.52 91.0814L105.233 90.65C105.808 90.5242 106.382 90.3871 106.959 90.2691C107.537 90.16 108.115 90.0385 108.695 89.9381C109.277 89.8464 109.858 89.7403 110.442 89.6584C111.028 89.5838 111.612 89.4926 112.198 89.4299C113.371 89.297 114.549 89.1945 115.729 89.1276C116.91 89.0633 118.093 89.0302 119.277 89.0334C121.646 89.0394 124.017 89.1843 126.376 89.4666C128.734 89.7493 131.08 90.1687 133.398 90.7214C134.557 90.9977 135.709 91.3087 136.852 91.6499C137.996 91.9923 139.129 92.3693 140.254 92.7729C140.813 92.9853 141.377 93.1852 141.933 93.4063C142.487 93.6333 143.045 93.8523 143.595 94.0859L145.241 94.8119L146.869 95.5824L150.074 97.0988L150.094 97.1018L150.096 97.1096L150.074 97.0988C142.42 104.03 131.068 114.477 118.77 126.11C103.892 112.035 90.3913 99.6932 83.1583 93.2174L83.1598 93.2154L83.0289 93.1015C81.2669 91.525 79.8995 90.3061 79.0018 89.5076C70.278 81.4348 36.5034 50.9978 33.7277 48.3446C28.9014 43.7304 18.0093 41.0363 14.412 51.782C13.0907 55.7297 13.5325 59.0443 14.4532 61.5317C15.1741 66.52 18.3857 69.4495 18.3857 69.4495C20.4008 70.8285 28.8291 67.4422 32.2815 71.8888C35.1835 75.6289 39.0924 82.6994 43.4189 85.6259C48.186 88.8506 60.8712 94.0354 66.4154 101.807C66.5965 104.724 65.561 108.949 64.2342 112.382C63.6344 113.437 63.0028 114.474 62.4038 115.455L61.6327 116.723L62.2147 117.253C63.4593 118.385 64.8574 119.667 66.3954 121.077C73.8149 127.88 84.3267 137.518 96.4075 147.637C78.6418 165.082 62.3022 182.113 55.4274 191.935L55.3739 192.009C54.5778 193.035 53.8509 194.011 53.2155 194.919L52.0871 196.53L54.0514 196.419C73.0032 195.345 96.8094 181.517 118.77 165.309C140.731 181.517 164.538 195.345 183.489 196.419L185.454 196.53L184.325 194.919C183.69 194.01 182.962 193.035 182.167 192.008L182.113 191.935C175.238 182.113 158.899 165.082 141.133 147.637C153.214 137.518 163.726 127.88 171.145 121.077C172.683 119.667 174.081 118.385 175.326 117.253L175.908 116.723L175.137 115.455C174.538 114.474 173.906 113.437 173.306 112.382C171.979 108.949 170.944 104.724 171.126 101.807C176.669 94.0354 189.354 88.8506 194.122 85.6259C198.449 82.6994 202.357 75.6289 205.259 71.8888C208.711 67.4422 217.14 70.8285 219.155 69.4495C219.155 69.4495 222.367 66.52 223.087 61.5314C224.008 59.0437 224.45 55.7294 223.129 51.782Z" fill="white" fill-opacity="0.34"/>
</g>
</svg>
